PathFileType	4	(X/Y/Z)	D:\TRACE\spotREDO_2-26-24\spot_Both_Motion_1_9-platform.trc
DataRate	CameraRate	NumFrames	NumMarkers	Units	OrigDataRate	OrigDataStartFrame	OrigNumFrames
100.00	100.00	      31	5	mm	100.00	2626	      7000
Frame#	Time	Left_Front			Right_Front			Left_Aft			Right_Aft			Post			
		X1	Y1	Z1	X2	Y2	Z2	X3	Y3	Z3	X4	Y4	Z4	X5	Y5	Z5	

2626	26.250	-681.37762	-10.09303	-577.42792	733.51385	-0.48601	-492.55252	-752.90955	10.57472	641.15161	817.23871	18.20935	645.39606	27.88471	612.59613	-991.08752	
2627	26.260	-680.59894	-9.87605	-577.15900	734.48669	-0.05326	-492.38303	-751.96960	10.21518	641.46173	818.17163	17.98434	645.51630	28.77650	613.24567	-990.66333	
2628	26.270	-679.65613	-9.29359	-576.89563	735.59967	0.34718	-492.20621	-750.98450	9.88594	641.55005	819.51959	17.47851	645.66449	29.87504	613.85254	-990.19391	
2629	26.280	-678.45166	-8.96360	-576.81366	736.45184	0.80673	-492.11722	-749.98444	9.54636	641.71271	820.29065	17.39219	645.74530	31.00741	614.62024	-989.58826	
2630	26.290	-677.51056	-8.65626	-576.86871	737.21448	1.03970	-492.19543	-749.09131	9.10903	641.90448	821.36523	16.80873	645.83789	31.71791	615.43890	-989.14716	
2631	26.300	-676.83673	-8.04745	-576.81909	738.39203	1.37695	-491.96927	-748.33142	8.85170	641.85083	821.86938	16.44174	645.86890	32.44046	615.95947	-988.42767	
2632	26.310	-675.78583	-7.64224	-576.69666	739.23865	1.71079	-491.86307	-747.18860	8.04386	641.87402	823.01923	15.73677	646.01239	33.85262	616.67676	-987.32623	
2633	26.320	-674.97284	-7.29560	-576.53296	740.24982	2.18454	-491.78955	-746.31055	7.80876	642.02600	823.86035	15.34112	646.12799	34.28620	617.50262	-986.85980	
2634	26.330	-673.86731	-6.71753	-576.40472	741.04913	2.39639	-491.64468	-745.49457	7.55173	641.97833	824.93109	15.08332	646.24750	35.88713	618.34546	-985.77356	
2635	26.340	-673.18683	-6.37199	-576.32770	742.19348	2.75599	-491.33948	-744.37335	6.89184	642.30609	825.83936	14.65349	646.21832	36.06496	618.88708	-985.52240	
2636	26.350	-672.33173	-5.82173	-576.28882	742.99835	3.13265	-491.34875	-743.48840	6.53656	642.35986	826.72614	14.27224	646.35358	36.90279	619.59326	-984.99097	
2637	26.360	-671.36029	-5.52427	-576.25519	743.51874	3.72474	-491.48669	-742.71552	6.14851	642.35358	827.60840	13.80565	646.39642	38.02438	620.24127	-984.48224	
2638	26.370	-670.24103	-5.19794	-576.13690	744.62646	3.97503	-491.58365	-741.95190	5.71339	642.57471	828.54663	13.54303	646.65326	38.94198	620.97241	-984.22845	
2639	26.380	-669.51300	-4.74245	-575.75525	745.37976	4.52354	-491.30676	-740.95367	5.08479	642.86249	829.49823	13.02790	646.72375	39.75580	621.79590	-983.94263	
2640	26.390	-668.84894	-4.21937	-575.69739	746.26752	4.81336	-490.95474	-739.97949	4.70401	642.95074	830.27960	12.67390	646.79376	40.78130	622.59570	-983.64966	
2641	26.400	-667.72083	-3.57649	-575.87714	747.20380	5.52103	-491.02310	-739.27789	4.31742	643.03583	831.31030	11.97009	646.96741	41.55001	623.13409	-983.12109	
2642	26.410	-666.94189	-3.12398	-575.71967	747.93829	5.81485	-490.97266	-738.38306	3.57966	643.25995	831.83417	11.41342	646.99829	42.59262	624.20319	-982.43768	
2643	26.420	-666.11682	-2.68879	-575.57892	748.67236	6.12297	-490.66583	-737.41614	3.10801	643.32068	832.78455	10.99380	647.31293	43.12754	624.79736	-982.01282	
2644	26.430	-665.28723	-2.12637	-575.48187	749.78003	6.52735	-490.44513	-736.79279	3.01618	643.34576	833.69977	10.50445	647.39172	44.38689	625.92206	-980.74109	
2645	26.440	-664.72058	-1.75113	-575.28363	750.58374	6.85520	-490.26910	-735.83612	2.12381	643.56073	834.28223	10.04225	647.51099	44.45505	626.66699	-980.25415	
2646	26.450	-663.70276	-0.83466	-575.13318	751.34113	7.22199	-490.17084	-734.82953	1.65683	643.58929	835.27142	9.52841	647.67065	45.84600	627.55908	-979.16309	
2647	26.460	-663.00635	-0.52258	-575.00586	752.01447	7.88458	-490.28088	-734.15723	1.49594	643.68060	836.22559	8.84567	647.79553	46.25452	628.26758	-978.41516	
2648	26.470	-662.10046	-0.06606	-574.84821	752.73584	8.34612	-490.13876	-733.35065	0.78439	643.87604	836.63318	8.64940	647.86725	47.31017	629.16638	-977.30023	
2649	26.480	-661.53229	0.35412	-574.78253	753.66943	8.57922	-489.95432	-732.52917	0.16016	643.98853	837.71814	8.02142	647.97821	48.06833	629.75281	-976.71112	
2650	26.490	-660.74707	0.75201	-574.63043	754.62018	8.87856	-489.71164	-731.91400	-0.17019	644.05829	838.33295	7.79247	648.21820	48.47653	630.58051	-976.31683	
2651	26.500	-659.80823	1.10235	-574.39069	755.28436	9.26946	-489.66388	-731.23798	-0.46780	644.28528	839.20581	7.34190	648.40247	49.44635	631.18140	-975.84534	
2652	26.510	-659.23651	1.42637	-574.38080	755.71344	9.61916	-489.52444	-730.66125	-0.77636	644.23828	839.85394	6.91625	648.53992	50.34872	631.79059	-975.36823	
2653	26.520	-658.37451	1.90810	-574.27203	756.88599	9.95184	-489.42249	-729.75208	-1.60850	644.46576	840.68451	6.32998	648.59595	50.91621	632.44757	-975.51935	
2654	26.530	-657.82416	2.35367	-574.16669	757.49957	10.29082	-489.31647	-729.09460	-1.83021	644.53979	841.15161	6.00461	648.69257	51.58368	633.11560	-975.22534	
2655	26.540	-657.17407	2.71874	-574.07623	757.85168	10.68946	-489.29089	-728.47003	-2.20912	644.62793	841.94067	5.46159	648.68713	52.31697	633.77930	-975.14099	
2656	26.550	-656.32495	3.13301	-574.06934	758.54016	11.08983	-489.20920	-727.61908	-2.64020	644.77216	842.53491	5.15674	648.84644	52.92421	634.46918	-974.75177	
